<?xml version="1.0" encoding="UTF-8"?>
<!DOCTYPE svg PUBLIC "-//W3C//DTD SVG 1.1//EN" "http://www.w3.org/Graphics/SVG/1.1/DTD/svg11.dtd">
<svg xmlns="http://www.w3.org/2000/svg" version="1.1" width="512px" height="512px" style="shape-rendering:geometricPrecision; text-rendering:geometricPrecision; image-rendering:optimizeQuality; fill-rule:evenodd; clip-rule:evenodd" xmlns:xlink="http://www.w3.org/1999/xlink">
<g><path style="opacity:0.962" fill="#8833ff" d="M 246.5,-0.5 C 252.5,-0.5 258.5,-0.5 264.5,-0.5C 270.301,1.39416 275.968,3.89416 281.5,7C 294.5,19.3333 307.5,31.6667 320.5,44C 323,44.8333 325.5,45.6667 328,46.5C 347.371,42.9223 366.871,40.7556 386.5,40C 403.411,43.251 415.245,52.751 422,68.5C 425.681,87.5902 429.681,106.59 434,125.5C 435.558,127.359 437.391,128.859 439.5,130C 455.649,137.906 471.316,146.572 486.5,156C 501.99,171.802 505.49,189.969 497,210.5C 489.049,225.063 482.216,240.063 476.5,255.5C 476.667,256.833 476.833,258.167 477,259.5C 484.94,275.713 492.607,292.046 500,308.5C 504.112,326.562 499.612,342.062 486.5,355C 471.316,364.428 455.649,373.094 439.5,381C 437.391,382.141 435.558,383.641 434,385.5C 429.811,401.962 426.477,418.629 424,435.5C 416.415,461.055 399.248,472.888 372.5,471C 357.58,469.107 342.746,466.94 328,464.5C 325.553,465.406 323.053,466.239 320.5,467C 307.5,479.333 294.5,491.667 281.5,504C 275.968,507.106 270.301,509.606 264.5,511.5C 258.5,511.5 252.5,511.5 246.5,511.5C 240.699,509.606 235.032,507.106 229.5,504C 216.5,491.667 203.5,479.333 190.5,467C 188.129,466.265 185.795,465.432 183.5,464.5C 166.248,467.323 148.915,469.657 131.5,471.5C 111.248,470.633 97.0818,460.966 89,442.5C 85.3193,423.41 81.3193,404.41 77,385.5C 75.4422,383.641 73.6089,382.141 71.5,381C 55.3506,373.094 39.684,364.428 24.5,355C 9.01019,339.198 5.51019,321.031 14,300.5C 21.9508,285.937 28.7842,270.937 34.5,255.5C 34.3333,254.167 34.1667,252.833 34,251.5C 26.0601,235.287 18.3935,218.954 11,202.5C 6.8884,184.438 11.3884,168.938 24.5,156C 39.684,146.572 55.3506,137.906 71.5,130C 73.6089,128.859 75.4422,127.359 77,125.5C 81.1892,109.038 84.5225,92.3711 87,75.5C 94.5852,49.9454 111.752,38.112 138.5,40C 153.356,42.0746 168.189,44.2413 183,46.5C 185.5,45.6667 188,44.8333 190.5,44C 203.5,31.6667 216.5,19.3333 229.5,7C 235.032,3.89416 240.699,1.39416 246.5,-0.5 Z M 252.5,29.5 C 256.41,29.2628 260.077,30.0961 263.5,32C 275.137,42.6368 286.471,53.6368 297.5,65C 308.825,74.4161 321.825,78.0828 336.5,76C 351.074,74.0135 365.574,71.8468 380,69.5C 385.724,70.5257 390.057,73.5257 393,78.5C 396.215,94.4575 399.215,110.457 402,126.5C 404.407,137.808 410.241,146.974 419.5,154C 434.341,162.255 449.341,170.255 464.5,178C 468.26,181.352 470.593,185.519 471.5,190.5C 464.279,206.61 456.779,222.61 449,238.5C 444.333,249.833 444.333,261.167 449,272.5C 456.779,288.39 464.279,304.39 471.5,320.5C 470.593,325.481 468.26,329.648 464.5,333C 449.341,340.745 434.341,348.745 419.5,357C 416,360.5 412.5,364 409,367.5C 406.196,371.443 404.196,375.777 403,380.5C 399.76,398.613 396.093,416.613 392,434.5C 388.745,438.127 384.745,440.46 380,441.5C 360.363,437.647 340.529,435.481 320.5,435C 311.91,436.796 304.243,440.462 297.5,446C 286.471,457.363 275.137,468.363 263.5,479C 258.167,482.333 252.833,482.333 247.5,479C 234.833,467 222.167,455 209.5,443C 198.884,435.876 187.217,433.209 174.5,435C 159.926,436.987 145.426,439.153 131,441.5C 125.276,440.474 120.943,437.474 118,432.5C 114.785,416.543 111.785,400.543 109,384.5C 106.593,373.192 100.759,364.026 91.5,357C 76.6587,348.745 61.6587,340.745 46.5,333C 42.7401,329.648 40.4067,325.481 39.5,320.5C 46.7213,304.39 54.2213,288.39 62,272.5C 66.6667,261.167 66.6667,249.833 62,238.5C 54.2213,222.61 46.7213,206.61 39.5,190.5C 40.4067,185.519 42.7401,181.352 46.5,178C 61.6587,170.255 76.6587,162.255 91.5,154C 95,150.5 98.5,147 102,143.5C 104.804,139.557 106.804,135.223 108,130.5C 111.24,112.387 114.907,94.3875 119,76.5C 122.255,72.873 126.255,70.5397 131,69.5C 150.637,73.3526 170.471,75.5192 190.5,76C 199.09,74.2044 206.757,70.5378 213.5,65C 225.522,51.7981 238.522,39.9648 252.5,29.5 Z M 193.5,152.5 C 215.514,154.539 223.681,166.206 218,187.5C 209.366,200.82 197.866,203.987 183.5,197C 171.62,187.435 169.453,175.935 177,162.5C 181.427,157.211 186.927,153.878 193.5,152.5 Z M 308.5,310.5 C 329.105,309.363 338.938,319.029 338,339.5C 332.04,355.563 320.873,361.063 304.5,356C 291.535,348.44 287.702,337.607 293,323.5C 296.843,317.482 302.01,313.149 308.5,310.5 Z"/></g>
<g><path style="opacity:0.962" fill="#8833ff" d="M 186.5,122.5 C 219.192,120.052 240.358,134.385 250,165.5C 253.666,193.336 243.166,213.836 218.5,227C 191.303,236.412 168.803,229.912 151,207.5C 137.102,183.121 139.102,160.121 157,138.5C 165.399,130.386 175.232,125.053 186.5,122.5 Z M 193.5,152.5 C 186.927,153.878 181.427,157.211 177,162.5C 169.453,175.935 171.62,187.435 183.5,197C 197.866,203.987 209.366,200.82 218,187.5C 223.681,166.206 215.514,154.539 193.5,152.5 Z"/></g>
<g><path style="opacity:0.966" fill="#8833ff" d="M 350.5,142.5 C 366.007,143.849 371.173,151.849 366,166.5C 299.5,233 233,299.5 166.5,366C 154.788,370.957 146.955,367.457 143,355.5C 142.542,351.658 143.209,347.991 145,344.5C 211.5,278 278,211.5 344.5,145C 346.611,144.155 348.611,143.322 350.5,142.5 Z"/></g>
<g><path style="opacity:0.962" fill="#8833ff" d="M 307.5,279.5 C 338.686,278.541 358.852,292.875 368,322.5C 372.063,350.207 361.896,370.707 337.5,384C 308.054,394.605 284.554,387.105 267,361.5C 253.974,333.106 259.474,308.94 283.5,289C 291.01,284.335 299.01,281.169 307.5,279.5 Z M 308.5,310.5 C 302.01,313.149 296.843,317.482 293,323.5C 287.702,337.607 291.535,348.44 304.5,356C 320.873,361.063 332.04,355.563 338,339.5C 338.938,319.029 329.105,309.363 308.5,310.5 Z"/></g>
</svg>
