<?xml version="1.0" encoding="UTF-8"?>
<svg version="1.1" xmlns="http://www.w3.org/2000/svg" width="512" height="512">
<path d="M0 0 C1.30928467 0.31348389 1.30928467 0.31348389 2.64501953 0.63330078 C37.74803562 9.19892434 67.65863286 27.47600554 93 53 C93.49322754 53.4959668 93.98645508 53.99193359 94.49462891 54.50292969 C127.93397414 88.5984162 144.26806509 137.28059253 144.24902344 184.3515625 C143.08206556 260.35343465 96.43065571 334.06891588 55 395 C54.18426514 396.2058374 54.18426514 396.2058374 53.35205078 397.43603516 C42.39595823 413.62868239 30.87242082 429.35162502 18.78808594 444.71923828 C16.34300583 447.83801742 13.91884544 450.97281542 11.49316406 454.10668945 C3.58424076 464.31578772 -4.5308681 474.32383572 -12.90820312 484.15209961 C-15.9042147 487.6738839 -18.80781167 491.25680296 -21.6875 494.875 C-25.71969179 499.83546616 -30.19014584 505.09507292 -36 508 C-37.9115417 508.17455695 -39.83104056 508.26715146 -41.75 508.3125 C-42.77609375 508.34988281 -43.8021875 508.38726563 -44.859375 508.42578125 C-51.46385188 507.53039819 -55.57448632 502.67006536 -59.8125 497.9375 C-60.33602051 497.3609668 -60.85954102 496.78443359 -61.39892578 496.19042969 C-65.24619776 491.92091049 -68.93753867 487.54097804 -72.53515625 483.05859375 C-74.41974341 480.72003314 -76.32220516 478.40354639 -78.24609375 476.09765625 C-84.57445814 468.50256484 -90.72499308 460.82902094 -96.60083008 452.87792969 C-99.95885623 448.34551492 -103.43969221 443.9371704 -107 439.5625 C-112.89984719 432.28300513 -118.27209985 424.67939998 -123.61230469 416.984375 C-124.86317484 415.1956571 -126.13124092 413.42212909 -127.4140625 411.65625 C-170.3726311 352.4625033 -214.38368576 282.43283116 -226 209 C-226.11569336 208.27554688 -226.23138672 207.55109375 -226.35058594 206.8046875 C-233.37790293 160.92902762 -221.37210183 111.30265871 -194.1015625 73.76953125 C-193.40804687 72.85558594 -192.71453125 71.94164063 -192 71 C-191.36835938 70.15824219 -190.73671875 69.31648438 -190.0859375 68.44921875 C-163.15190069 33.70098608 -126.65482513 10.34669295 -84 0 C-83.15646973 -0.21172852 -82.31293945 -0.42345703 -81.44384766 -0.64160156 C-55.60149057 -6.88811653 -25.73847679 -6.43831938 0 0 Z M-106 114 C-106.63550781 114.55171875 -107.27101563 115.1034375 -107.92578125 115.671875 C-125.32090118 131.8273427 -133.69362402 155.77838843 -135.1875 178.90234375 C-135.80177649 205.04748694 -125.1029914 228.59782411 -107.5234375 247.52734375 C-95.37508585 259.43122393 -80.4099622 267.57745699 -64 272 C-63.20464844 272.22429687 -62.40929687 272.44859375 -61.58984375 272.6796875 C-38.73363159 277.96812962 -13.37692334 273.1207267 6.46484375 260.93359375 C28.0750856 246.56959233 43.0411601 226.36490139 49 201 C53.87407625 176.60410003 49.77882499 151.17897599 35.83789062 130.25585938 C20.30175675 108.2483947 -0.69474911 95.09190356 -26.7890625 89.390625 C-56.69640092 85.75226266 -83.39400252 94.01759205 -106 114 Z " fill="#000000" transform="translate(298,4)"/>
</svg>
